<svg xmlns="http://www.w3.org/2000/svg" version="1.1" xmlns:xlink="http://www.w3.org/1999/xlink" xmlns:svgjs="http://svgjs.dev/svgjs" viewBox="0 0 1422 800"><defs><radialGradient id="cccircular-grad" r="50%" cx="50%" cy="50%">
         <stop offset="15%" stop-color="#0e0027" stop-opacity="0.5"></stop>
         <stop offset="75%" stop-color="hsl(265, 55%, 20%)" stop-opacity="1"></stop>
          <stop offset="100%" stop-color="#886aab" stop-opacity="1"></stop>
        </radialGradient></defs><g fill="url(#cccircular-grad)"><circle r="1568" cx="711" cy="0" opacity="0.72"></circle><circle r="1536" cx="711" cy="0" opacity="0.87"></circle><circle r="1504" cx="711" cy="0" opacity="0.25"></circle><circle r="1472" cx="711" cy="0" opacity="0.45"></circle><circle r="1440" cx="711" cy="0" opacity="0.31"></circle><circle r="1408" cx="711" cy="0" opacity="0.92"></circle><circle r="1376" cx="711" cy="0" opacity="0.48"></circle><circle r="1344" cx="711" cy="0" opacity="0.25"></circle><circle r="1312" cx="711" cy="0" opacity="0.22"></circle><circle r="1280" cx="711" cy="0" opacity="0.97"></circle><circle r="1248" cx="711" cy="0" opacity="0.56"></circle><circle r="1216" cx="711" cy="0" opacity="0.08"></circle><circle r="1184" cx="711" cy="0" opacity="0.61"></circle><circle r="1152" cx="711" cy="0" opacity="0.51"></circle><circle r="1120" cx="711" cy="0" opacity="0.33"></circle><circle r="1088" cx="711" cy="0" opacity="0.80"></circle><circle r="1056" cx="711" cy="0" opacity="0.95"></circle><circle r="1024" cx="711" cy="0" opacity="0.70"></circle><circle r="992" cx="711" cy="0" opacity="0.36"></circle><circle r="960" cx="711" cy="0" opacity="0.16"></circle><circle r="928" cx="711" cy="0" opacity="0.96"></circle><circle r="896" cx="711" cy="0" opacity="0.48"></circle><circle r="864" cx="711" cy="0" opacity="0.27"></circle><circle r="832" cx="711" cy="0" opacity="0.89"></circle><circle r="800" cx="711" cy="0" opacity="0.55"></circle><circle r="768" cx="711" cy="0" opacity="0.41"></circle><circle r="736" cx="711" cy="0" opacity="0.78"></circle><circle r="704" cx="711" cy="0" opacity="0.19"></circle><circle r="672" cx="711" cy="0" opacity="0.84"></circle><circle r="640" cx="711" cy="0" opacity="0.95"></circle><circle r="608" cx="711" cy="0" opacity="0.85"></circle><circle r="576" cx="711" cy="0" opacity="0.13"></circle><circle r="544" cx="711" cy="0" opacity="0.11"></circle><circle r="512" cx="711" cy="0" opacity="0.50"></circle><circle r="480" cx="711" cy="0" opacity="0.10"></circle><circle r="448" cx="711" cy="0" opacity="0.10"></circle><circle r="416" cx="711" cy="0" opacity="1.00"></circle><circle r="384" cx="711" cy="0" opacity="0.16"></circle><circle r="352" cx="711" cy="0" opacity="0.71"></circle><circle r="320" cx="711" cy="0" opacity="0.37"></circle><circle r="288" cx="711" cy="0" opacity="0.90"></circle><circle r="256" cx="711" cy="0" opacity="0.77"></circle><circle r="224" cx="711" cy="0" opacity="0.32"></circle><circle r="192" cx="711" cy="0" opacity="0.30"></circle><circle r="160" cx="711" cy="0" opacity="0.09"></circle><circle r="128" cx="711" cy="0" opacity="0.90"></circle><circle r="96" cx="711" cy="0" opacity="0.29"></circle><circle r="64" cx="711" cy="0" opacity="0.25"></circle></g></svg>