<svg xmlns="http://www.w3.org/2000/svg" version="1.1" xmlns:xlink="http://www.w3.org/1999/xlink" xmlns:svgjs="http://svgjs.dev/svgjs" viewBox="0 0 1422 800"><defs><radialGradient id="cccircular-grad" r="50%" cx="50%" cy="50%">
         <stop offset="15%" stop-color="#49a9cc" stop-opacity="0.5"></stop>
         <stop offset="75%" stop-color="hsl(197, 100%, 75%)" stop-opacity="1"></stop>
          <stop offset="100%" stop-color="#ebffff" stop-opacity="1"></stop>
        </radialGradient></defs><g fill="url(#cccircular-grad)"><circle r="2772" cx="711" cy="0"></circle><circle r="2740.5" cx="711" cy="0"></circle><circle r="2709" cx="711" cy="0"></circle><circle r="2677.5" cx="711" cy="0"></circle><circle r="2646" cx="711" cy="0"></circle><circle r="2614.5" cx="711" cy="0"></circle><circle r="2583" cx="711" cy="0"></circle><circle r="2551.5" cx="711" cy="0"></circle><circle r="2520" cx="711" cy="0"></circle><circle r="2488.5" cx="711" cy="0"></circle><circle r="2457" cx="711" cy="0"></circle><circle r="2425.5" cx="711" cy="0"></circle><circle r="2394" cx="711" cy="0"></circle><circle r="2362.5" cx="711" cy="0"></circle><circle r="2331" cx="711" cy="0"></circle><circle r="2299.5" cx="711" cy="0"></circle><circle r="2268" cx="711" cy="0"></circle><circle r="2236.5" cx="711" cy="0"></circle><circle r="2205" cx="711" cy="0"></circle><circle r="2173.5" cx="711" cy="0"></circle><circle r="2142" cx="711" cy="0"></circle><circle r="2110.5" cx="711" cy="0"></circle><circle r="2079" cx="711" cy="0"></circle><circle r="2047.5" cx="711" cy="0"></circle><circle r="2016" cx="711" cy="0"></circle><circle r="1984.5" cx="711" cy="0"></circle><circle r="1953" cx="711" cy="0"></circle><circle r="1921.5" cx="711" cy="0"></circle><circle r="1890" cx="711" cy="0"></circle><circle r="1858.5" cx="711" cy="0"></circle><circle r="1827" cx="711" cy="0"></circle><circle r="1795.5" cx="711" cy="0"></circle><circle r="1764" cx="711" cy="0"></circle><circle r="1732.5" cx="711" cy="0"></circle><circle r="1701" cx="711" cy="0"></circle><circle r="1669.5" cx="711" cy="0"></circle><circle r="1638" cx="711" cy="0"></circle><circle r="1606.5" cx="711" cy="0"></circle><circle r="1575" cx="711" cy="0"></circle><circle r="1543.5" cx="711" cy="0"></circle><circle r="1512" cx="711" cy="0"></circle><circle r="1480.5" cx="711" cy="0"></circle><circle r="1449" cx="711" cy="0"></circle><circle r="1417.5" cx="711" cy="0"></circle><circle r="1386" cx="711" cy="0"></circle><circle r="1354.5" cx="711" cy="0"></circle><circle r="1323" cx="711" cy="0"></circle><circle r="1291.5" cx="711" cy="0"></circle><circle r="1260" cx="711" cy="0"></circle><circle r="1228.5" cx="711" cy="0"></circle><circle r="1197" cx="711" cy="0"></circle><circle r="1165.5" cx="711" cy="0"></circle><circle r="1134" cx="711" cy="0"></circle><circle r="1102.5" cx="711" cy="0"></circle><circle r="1071" cx="711" cy="0"></circle><circle r="1039.5" cx="711" cy="0"></circle><circle r="1008" cx="711" cy="0"></circle><circle r="976.5" cx="711" cy="0"></circle><circle r="945" cx="711" cy="0"></circle><circle r="913.5" cx="711" cy="0"></circle><circle r="882" cx="711" cy="0"></circle><circle r="850.5" cx="711" cy="0"></circle><circle r="819" cx="711" cy="0"></circle><circle r="787.5" cx="711" cy="0"></circle><circle r="756" cx="711" cy="0"></circle><circle r="724.5" cx="711" cy="0"></circle><circle r="693" cx="711" cy="0"></circle><circle r="661.5" cx="711" cy="0"></circle><circle r="630" cx="711" cy="0"></circle><circle r="598.5" cx="711" cy="0"></circle><circle r="567" cx="711" cy="0"></circle><circle r="535.5" cx="711" cy="0"></circle><circle r="504" cx="711" cy="0"></circle><circle r="472.5" cx="711" cy="0"></circle><circle r="441" cx="711" cy="0"></circle><circle r="409.5" cx="711" cy="0"></circle><circle r="378" cx="711" cy="0"></circle><circle r="346.5" cx="711" cy="0"></circle><circle r="315" cx="711" cy="0"></circle><circle r="283.5" cx="711" cy="0"></circle><circle r="252" cx="711" cy="0"></circle><circle r="220.5" cx="711" cy="0"></circle><circle r="189" cx="711" cy="0"></circle><circle r="157.5" cx="711" cy="0"></circle><circle r="126" cx="711" cy="0"></circle><circle r="94.5" cx="711" cy="0"></circle><circle r="63" cx="711" cy="0"></circle></g></svg>